<?xml version="1.0" standalone="no"?>
<!DOCTYPE svg PUBLIC "-//W3C//DTD SVG 20010904//EN"
 "http://www.w3.org/TR/2001/REC-SVG-20010904/DTD/svg10.dtd">
<svg version="1.0" xmlns="http://www.w3.org/2000/svg"
 width="994.000000pt" height="994.000000pt" viewBox="0 0 994.000000 994.000000"
 preserveAspectRatio="xMidYMid meet">
<metadata>
Created by potrace 1.14, written by Peter Selinger 2001-2017
</metadata>
<g transform="translate(0.000000,994.000000) scale(0.100000,-0.100000)"
fill="#000000" stroke="none">
<path d="M4341 8861 c-1 -7 -7 -11 -16 -8 -8 4 -17 2 -19 -2 -4 -7 -92 -24
-176 -36 -16 -2 -30 -6 -150 -35 -41 -11 -98 -21 -127 -23 -28 -2 -79 -14
-114 -25 -64 -22 -184 -56 -184 -52 0 1 -13 -4 -29 -10 -16 -6 -45 -13 -65
-16 -55 -9 -340 -101 -476 -154 -28 -11 -55 -20 -60 -20 -6 0 -37 -11 -70 -24
-75 -31 -97 -39 -110 -41 -5 0 -17 -4 -25 -7 -8 -3 -49 -15 -90 -27 -41 -12
-104 -32 -140 -43 -36 -11 -69 -21 -75 -22 -5 -2 -27 -10 -49 -19 -21 -9 -44
-17 -51 -17 -6 0 -34 -11 -61 -25 -27 -14 -53 -25 -58 -25 -5 0 -43 -16 -85
-36 -42 -20 -94 -43 -116 -50 -21 -8 -42 -18 -45 -23 -3 -4 -36 -23 -75 -41
-38 -19 -89 -50 -113 -68 -23 -19 -55 -42 -71 -51 -57 -32 -187 -131 -236
-181 -27 -27 -54 -50 -60 -50 -5 0 -48 -25 -95 -56 -47 -30 -110 -69 -140 -87
-73 -41 -154 -100 -215 -158 -27 -25 -67 -61 -88 -79 -20 -18 -45 -45 -54 -60
-9 -16 -26 -34 -37 -40 -12 -6 -32 -27 -46 -46 -14 -19 -49 -67 -78 -106 -30
-39 -69 -99 -88 -132 -36 -67 -93 -213 -102 -261 -3 -16 -11 -39 -18 -50 -7
-11 -20 -45 -28 -75 -8 -30 -19 -68 -26 -85 -6 -16 -14 -41 -16 -55 -2 -14 -9
-34 -14 -45 -5 -11 -20 -47 -33 -80 -13 -33 -36 -78 -50 -99 -15 -21 -27 -43
-27 -49 0 -5 -6 -4 -14 2 -16 13 -14 24 -22 -132 -4 -74 -2 -108 10 -140 26
-68 23 -315 -3 -364 -24 -45 -51 -111 -51 -125 0 -9 -7 -33 -16 -54 -22 -53
-22 -183 0 -260 10 -32 27 -90 38 -129 11 -38 29 -95 40 -125 11 -30 24 -78
28 -106 4 -29 11 -60 14 -70 3 -11 12 -79 21 -153 10 -92 26 -173 51 -255 48
-156 123 -377 133 -390 4 -6 18 -44 31 -84 12 -40 27 -75 32 -78 5 -3 24 -38
42 -79 19 -40 45 -90 58 -111 23 -37 36 -68 74 -166 9 -24 27 -65 39 -93 13
-27 26 -61 30 -75 4 -13 23 -57 41 -97 19 -40 34 -75 34 -78 0 -3 27 -60 59
-128 57 -117 115 -200 226 -327 51 -58 230 -219 275 -248 22 -14 123 -89 170
-125 68 -52 257 -156 318 -175 24 -7 57 -22 75 -32 18 -11 38 -20 46 -20 15 0
205 -113 227 -135 8 -7 40 -26 71 -41 32 -16 81 -42 108 -59 28 -17 88 -45
135 -63 158 -61 235 -94 325 -138 85 -41 204 -96 215 -99 3 0 19 -8 36 -17 17
-10 62 -25 100 -34 38 -9 82 -26 97 -37 16 -11 41 -19 55 -19 15 0 29 -4 32
-9 4 -5 26 -11 50 -14 24 -3 50 -11 57 -17 7 -5 45 -16 85 -24 40 -7 89 -20
108 -28 19 -8 69 -20 110 -26 41 -7 84 -14 95 -16 11 -3 56 -11 100 -19 44 -8
105 -19 135 -25 30 -6 100 -13 155 -16 55 -2 134 -9 175 -14 41 -5 109 -12
150 -15 78 -7 257 -44 325 -68 22 -8 65 -18 95 -22 30 -4 60 -11 65 -15 6 -5
44 -16 85 -25 41 -8 98 -20 125 -26 60 -13 442 -6 558 9 43 6 103 14 134 18
32 3 75 13 96 20 22 8 46 14 53 14 8 0 47 15 87 34 39 18 79 37 87 40 19 9 43
23 106 63 27 18 59 34 69 36 11 2 45 10 75 19 119 35 226 60 252 60 15 0 30 3
33 8 4 7 62 21 97 24 3 1 10 4 14 9 4 4 17 7 29 7 12 0 30 7 41 15 10 8 37 20
59 26 22 6 48 20 58 32 10 12 15 16 11 8 -5 -11 -3 -13 10 -8 10 4 24 7 32 7
8 0 14 7 14 15 0 8 8 15 19 15 10 0 35 11 55 25 21 14 41 23 46 20 4 -3 13 2
20 9 6 8 23 17 38 21 15 3 43 20 62 37 19 17 73 55 118 85 122 78 238 168 358
276 22 20 44 37 47 37 7 0 164 107 199 136 15 12 70 43 122 68 51 24 96 51 99
59 3 8 19 17 35 20 16 3 37 13 46 22 9 9 16 14 16 10 0 -3 10 3 22 15 12 11
25 20 29 20 6 0 129 143 219 256 25 31 62 68 82 81 21 14 40 33 43 42 3 9 17
24 32 34 74 45 220 203 368 395 22 29 66 84 97 123 32 38 58 73 58 78 0 4 19
36 43 72 88 134 124 245 172 529 24 138 30 162 58 217 54 108 90 237 147 523
5 25 16 79 25 120 14 61 15 107 10 250 -9 223 -8 219 -20 217 -5 -1 -10 9 -10
23 0 14 -5 31 -12 38 -6 6 -10 24 -7 38 3 14 1 23 -4 20 -14 -9 -57 92 -97
229 -17 61 -33 105 -65 185 -10 25 -28 70 -40 100 -11 30 -41 96 -66 147 -24
50 -44 96 -44 101 0 6 -3 12 -7 14 -11 4 -55 73 -82 126 -13 26 -26 40 -33 36
-7 -5 -9 -2 -5 9 4 11 -7 27 -35 52 -23 19 -46 35 -52 35 -6 0 -27 50 -46 111
-19 61 -38 113 -42 115 -3 2 -16 32 -28 67 -28 81 -174 348 -221 402 -9 11
-20 31 -24 45 -4 14 -15 34 -25 45 -25 28 -90 158 -90 180 0 49 -104 168 -232
264 -132 100 -268 254 -268 303 0 9 -18 34 -39 56 -38 39 -89 62 -137 62 -21
0 -94 65 -94 83 0 12 -15 30 -87 102 -43 42 -69 58 -135 82 -109 40 -197 61
-286 67 -72 5 -72 5 -143 68 -72 65 -112 86 -164 87 -17 1 -39 7 -50 15 -11 7
-36 19 -55 25 -57 17 -163 56 -185 67 -43 23 -143 54 -205 65 -116 19 -144 26
-180 42 -19 8 -64 18 -100 22 -36 4 -74 14 -85 21 -11 8 -35 14 -55 14 -19 0
-84 9 -145 19 -60 10 -117 18 -125 19 -42 0 -216 13 -295 22 -145 16 -308 23
-480 23 -601 -2 -765 -1 -765 9 0 3 -13 1 -29 -5 -17 -6 -36 -7 -47 -2 -10 5
-37 10 -59 10 -22 1 -49 5 -59 10 -14 6 -17 5 -12 -3 4 -7 3 -12 -3 -12 -5 0
-12 6 -14 13 -4 9 -6 9 -6 -2z m923 -158 c4 -5 49 -9 99 -10 217 -3 455 -17
697 -38 45 -5 173 -24 330 -50 47 -8 88 -14 91 -14 4 -1 9 -11 12 -22 5 -20 7
-20 22 -6 11 12 22 14 38 8 12 -5 53 -14 92 -20 38 -7 141 -36 230 -66 88 -29
196 -64 240 -78 l80 -24 -3 -61 c-3 -54 0 -68 30 -123 18 -33 47 -76 64 -94
18 -19 35 -50 39 -72 10 -53 33 -88 69 -105 28 -14 46 -15 120 -10 37 3 124
95 132 140 3 20 8 45 11 55 3 13 -5 21 -32 33 -53 22 -63 14 -63 -46 -1 -61
-12 -77 -58 -86 -45 -8 -69 13 -78 68 -5 30 -19 53 -56 91 -28 28 -51 60 -51
71 -2 25 2 60 6 64 1 2 36 -19 76 -47 41 -27 91 -53 112 -56 20 -4 42 -15 47
-24 6 -10 10 -11 10 -3 0 14 81 5 91 -11 4 -5 12 -6 18 -3 16 10 100 -19 206
-70 67 -33 96 -53 113 -79 12 -19 22 -40 22 -47 0 -14 30 -48 42 -48 5 0 24
-12 43 -26 18 -14 44 -26 57 -27 29 -2 138 -109 138 -136 0 -11 11 -33 25 -49
14 -17 25 -35 25 -41 0 -6 5 -11 10 -11 17 0 11 -22 -15 -56 -14 -18 -25 -35
-25 -39 0 -3 -5 -12 -12 -19 -10 -11 -15 -11 -26 1 -17 16 -35 17 -29 1 2 -7
-5 -29 -16 -48 -11 -19 -20 -45 -19 -58 2 -29 29 -82 42 -82 5 0 42 -22 82
-49 40 -27 76 -47 81 -44 5 3 22 -4 38 -16 15 -11 34 -21 42 -21 7 0 32 -9 55
-20 22 -11 48 -20 56 -20 8 0 37 -13 63 -30 26 -16 51 -30 56 -30 35 0 147
-76 147 -101 0 -6 17 -36 38 -67 21 -31 56 -93 77 -136 20 -44 50 -97 66 -119
16 -22 29 -47 29 -55 0 -8 11 -38 25 -66 34 -69 81 -210 135 -401 66 -236 81
-300 92 -387 15 -121 15 -372 -1 -478 -6 -41 -13 -95 -16 -120 -14 -121 -37
-190 -89 -267 -66 -100 -75 -114 -123 -203 -22 -41 -49 -89 -59 -107 -55 -91
-74 -127 -86 -161 -7 -20 -32 -74 -55 -119 -23 -46 -40 -83 -37 -83 3 0 -7
-17 -23 -38 -16 -20 -47 -65 -68 -99 -22 -34 -43 -62 -47 -63 -4 0 -35 -29
-69 -64 -33 -36 -86 -84 -117 -108 -30 -24 -65 -53 -76 -64 -31 -31 -116 -75
-241 -122 -60 -24 -117 -47 -125 -52 -8 -6 -26 -15 -40 -21 -13 -5 -31 -15
-38 -22 -8 -6 -24 -13 -35 -14 -12 -2 -26 -8 -31 -13 -6 -6 -16 -10 -24 -10
-13 0 -71 -46 -173 -138 -26 -24 -56 -60 -66 -80 -10 -20 -37 -71 -61 -113
-23 -42 -42 -83 -42 -91 0 -51 -145 -110 -277 -111 -71 -2 -73 -1 -102 33 -27
32 -29 40 -25 90 7 68 9 81 16 100 12 29 33 125 31 140 -1 8 4 40 12 71 16 66
12 147 -9 191 -9 17 -16 36 -16 43 0 23 -88 49 -181 54 -61 2 -123 -19 -139
-48 -5 -11 -17 -27 -26 -35 -9 -9 -24 -56 -35 -104 -11 -48 -24 -103 -29 -123
-6 -20 -10 -52 -10 -70 0 -19 -6 -68 -14 -109 -8 -41 -17 -151 -20 -245 -11
-296 -16 -363 -31 -440 -1 -5 -6 -37 -10 -70 -8 -72 -42 -145 -99 -214 -110
-134 -229 -154 -392 -66 -115 62 -180 79 -294 77 -160 -2 -350 -40 -380 -78
-7 -7 -20 -14 -30 -14 -9 0 -29 -11 -43 -24 -15 -14 -37 -28 -49 -31 -13 -4
-54 -27 -93 -50 -76 -47 -95 -49 -183 -19 -70 23 -197 29 -355 14 -187 -16
-268 -5 -387 52 -47 22 -113 63 -146 89 -34 27 -66 49 -72 49 -17 0 -252 235
-252 252 0 9 -12 18 -28 21 -15 3 -54 22 -86 41 -33 20 -66 36 -73 36 -7 0
-36 11 -65 24 -62 28 -85 33 -193 42 -103 9 -189 9 -297 0 -85 -7 -207 -28
-225 -39 -5 -3 -22 -8 -37 -11 -15 -3 -49 -12 -74 -20 -26 -8 -69 -17 -97 -21
-27 -3 -81 -10 -120 -15 -177 -23 -372 0 -407 48 -7 9 -29 28 -48 41 -55 37
-110 108 -110 141 0 16 -4 32 -10 35 -5 3 -10 22 -10 40 0 19 -6 52 -14 72 -8
21 -17 55 -20 76 -5 40 -32 80 -106 155 -48 49 -73 65 -290 184 -74 41 -148
82 -165 91 -16 9 -52 26 -80 38 -27 12 -63 27 -80 35 -33 15 -115 35 -158 39
-38 4 -129 26 -149 36 -41 21 -58 158 -38 304 13 95 13 349 -1 436 -22 145
-95 296 -219 454 -25 33 -69 94 -96 135 -27 41 -52 77 -57 78 -8 4 -47 86 -47
100 0 5 -6 15 -14 21 -8 6 -16 22 -19 34 -3 12 -21 83 -40 157 -20 74 -40 172
-46 218 -6 46 -13 87 -16 92 -3 6 -6 74 -6 152 0 140 22 343 42 380 5 10 8 18
5 18 -3 0 1 15 8 33 7 17 19 64 25 102 7 39 16 79 21 90 4 11 27 79 50 150 71
217 125 334 213 467 95 141 185 236 201 210 6 -11 -23 -121 -45 -169 -27 -60
-25 -135 4 -174 25 -36 85 -69 121 -69 39 0 76 21 76 43 0 10 11 28 25 39 14
11 35 38 46 61 12 23 26 52 32 64 7 11 26 27 45 34 21 8 35 22 39 38 3 14 20
40 37 59 17 19 36 41 41 50 6 10 18 17 29 17 12 0 23 13 34 39 14 36 14 41 -3
72 -20 37 -40 46 -30 14 15 -49 -40 -8 -70 51 -30 57 -26 82 14 107 58 37 141
105 146 121 2 9 14 21 25 26 10 6 62 43 114 82 127 98 227 164 240 160 6 -2
14 -19 17 -38 12 -63 36 -103 76 -126 54 -30 295 -54 309 -31 3 5 12 4 20 -3
16 -13 151 -6 218 12 49 13 117 75 118 109 1 14 5 30 9 36 13 17 -9 80 -39
112 -31 33 -83 51 -128 47 -16 -2 -58 -6 -94 -9 -86 -8 -236 -32 -251 -42 -7
-4 -25 -8 -41 -9 -35 -3 -42 -9 -35 -28 4 -11 46 -14 216 -14 116 0 211 3 211
8 0 4 -10 9 -22 11 -27 4 -34 38 -7 38 11 0 22 -8 26 -17 3 -10 13 -26 20 -35
19 -21 11 -34 -30 -51 -37 -16 -100 -37 -110 -37 -4 0 -11 11 -16 23 -10 25
-37 31 -58 14 -18 -13 -101 -18 -108 -6 -4 5 -11 7 -16 3 -6 -3 -18 -2 -27 2
-20 9 -30 10 -60 12 -14 1 -26 10 -29 21 -3 14 -17 21 -46 25 -23 3 -48 7 -55
8 -18 2 -7 10 73 52 39 21 77 43 85 51 25 21 118 65 139 65 11 0 23 5 26 11 4
5 12 8 18 6 7 -2 19 2 28 10 9 7 32 15 50 17 19 1 48 10 66 19 18 10 54 22 82
28 27 6 55 17 62 25 6 8 20 14 30 14 10 0 21 5 24 10 4 6 11 8 16 4 5 -3 21 1
34 10 13 9 31 16 39 16 15 0 274 86 326 108 69 30 285 92 300 87 10 -3 20 0
23 8 3 8 25 17 49 21 23 4 52 8 63 10 11 1 41 13 67 24 26 12 59 22 73 22 14
0 41 7 60 15 19 7 63 17 98 21 34 4 79 13 101 20 21 8 41 12 45 10 4 -3 53 4
109 13 l103 18 -3 -21 c-2 -14 8 -29 32 -47 44 -32 75 -40 108 -28 21 8 35 5
76 -17 33 -18 74 -30 125 -35 42 -5 114 -13 161 -18 105 -11 113 -15 145 -57
14 -18 46 -46 72 -61 44 -25 49 -26 110 -16 73 13 97 30 125 89 20 43 19 69
-3 119 -17 38 -83 105 -104 105 -8 0 -15 5 -15 10 0 6 26 11 58 11 114 2 162
6 169 12 9 9 38 9 47 0z m-974 -43 c9 -5 19 -5 27 2 9 7 13 7 13 -1 0 -6 -4
-11 -10 -11 -5 0 -10 -7 -10 -15 0 -20 -43 -47 -64 -39 -18 7 -32 47 -21 63 8
13 45 14 65 1z m293 -10 c8 0 7 -4 -1 -12 -9 -9 -16 -8 -30 6 -16 18 -16 19 1
12 10 -3 24 -6 30 -6z m229 -11 c32 -7 66 -23 86 -40 18 -16 42 -29 54 -29 12
0 32 -10 45 -21 l22 -22 -34 -18 c-19 -11 -37 -19 -40 -19 -3 0 -28 20 -54 45
-53 50 -137 85 -186 78 -17 -3 -43 1 -60 8 l-30 13 40 6 c64 11 100 11 157 -1z
m-266 -34 c10 -8 14 -15 8 -15 -5 0 -19 7 -30 15 -10 8 -14 15 -8 15 5 0 19
-7 30 -15z m3952 -1081 c7 -8 10 -18 7 -24 -3 -5 -1 -10 6 -10 7 0 9 -3 6 -6
-4 -4 -17 0 -29 8 -23 15 -62 18 -74 5 -10 -10 24 -38 42 -35 9 2 19 -3 22
-11 3 -10 0 -12 -12 -8 -11 5 -16 1 -16 -13 0 -15 -6 -19 -22 -16 -16 2 -24
12 -29 37 -6 27 -3 39 19 65 28 34 52 36 80 8z m62 -75 c0 -6 -4 -7 -10 -4 -5
3 -10 11 -10 16 0 6 5 7 10 4 6 -3 10 -11 10 -16z m-47 -43 c7 -18 -10 -33
-42 -38 -34 -4 -36 14 -4 34 34 21 39 22 46 4z m-113 0 c0 -3 -4 -8 -10 -11
-5 -3 -10 -1 -10 4 0 6 5 11 10 11 6 0 10 -2 10 -4z m-7130 -25 c-15 -28 -13
-34 10 -28 11 3 18 2 15 -3 -2 -4 3 -25 11 -47 15 -39 15 -41 -7 -67 -28 -32
-51 -33 -82 -3 -81 78 -85 80 -128 63 -43 -17 -47 -13 -23 22 30 43 99 77 159
80 52 2 55 1 45 -17z m7383 -43 c5 -18 -3 -48 -14 -48 -5 0 -18 9 -29 20 -16
16 -18 24 -10 40 9 16 15 18 30 10 10 -5 20 -15 23 -22z m-7505 -128 c17 -16
32 -36 32 -43 0 -18 -20 -36 -34 -31 -7 3 -17 -10 -24 -29 -12 -34 -50 -82
-58 -74 -3 3 5 24 17 47 26 50 30 137 8 151 -11 7 -9 9 6 9 11 -1 35 -14 53
-30z m8355 -1344 c9 -12 19 -41 23 -62 3 -21 10 -43 14 -49 16 -21 93 -266 85
-273 -4 -4 -10 -1 -12 6 -3 6 -9 12 -14 12 -6 0 -8 -4 -5 -9 4 -5 -7 -23 -24
-39 -22 -22 -30 -40 -30 -66 0 -19 -5 -38 -11 -41 -14 -9 72 -94 88 -88 7 3
13 11 13 19 0 8 4 14 9 14 4 0 13 15 18 33 l10 32 18 -40 c9 -22 26 -59 36
-82 10 -23 19 -46 19 -51 0 -5 7 -23 16 -40 26 -54 36 -205 19 -297 -4 -22 -8
-49 -10 -60 -5 -39 -37 -200 -48 -240 -6 -22 -10 -43 -9 -46 3 -14 -48 -180
-91 -294 -45 -123 -68 -203 -94 -335 -30 -155 -73 -307 -96 -340 -9 -13 -17
-28 -17 -33 0 -17 -180 -280 -218 -317 -14 -14 -38 -44 -53 -68 -15 -24 -54
-71 -86 -106 -32 -34 -65 -70 -73 -81 -15 -19 -52 -53 -154 -139 -73 -61 -152
-144 -203 -211 -24 -33 -66 -82 -91 -109 -53 -55 -169 -146 -187 -146 -7 0
-20 -9 -30 -20 -10 -11 -22 -20 -26 -20 -4 0 -20 -5 -36 -12 -15 -6 -33 -10
-39 -10 -6 1 -22 -8 -36 -21 -14 -13 -43 -35 -64 -47 -22 -13 -57 -39 -80 -57
-23 -18 -46 -33 -53 -33 -6 0 -14 -7 -17 -15 -4 -8 -11 -15 -18 -15 -10 0 -61
-38 -105 -80 -9 -8 -39 -29 -66 -47 -28 -18 -68 -49 -91 -70 -77 -71 -159
-130 -261 -184 -13 -7 -23 -18 -23 -24 0 -7 -19 -17 -42 -24 -24 -7 -68 -27
-98 -44 -53 -31 -197 -99 -250 -119 -14 -6 -37 -16 -53 -23 -25 -13 -95 -29
-312 -71 -113 -22 -131 -29 -312 -121 -168 -86 -279 -123 -408 -137 -343 -35
-597 -26 -758 25 -33 10 -66 19 -73 19 -8 0 -54 13 -102 29 -181 59 -253 71
-502 82 -183 8 -237 14 -246 25 -8 10 -39 16 -94 19 -45 3 -85 7 -89 9 -4 3
-54 10 -111 16 -58 6 -125 17 -150 25 -25 7 -63 16 -85 20 -62 10 -383 120
-468 160 -42 19 -79 35 -83 35 -4 0 -15 6 -23 14 -9 7 -43 23 -76 36 -63 25
-96 39 -210 90 -38 18 -104 43 -145 56 -40 13 -111 46 -156 74 -44 27 -105 61
-135 76 -30 14 -74 38 -99 54 -89 58 -290 160 -384 195 -129 49 -255 120 -306
174 -9 9 -41 33 -72 54 -32 22 -73 53 -92 70 -50 45 -57 51 -104 82 -23 15
-42 31 -42 35 0 4 -12 21 -28 37 -143 159 -179 207 -216 291 -11 23 -23 42
-28 42 -4 0 -8 6 -8 14 0 7 -18 52 -40 100 -50 108 -51 118 -8 103 18 -7 47
-20 63 -29 52 -30 139 -71 160 -74 59 -9 279 -13 295 -4 18 10 62 -1 105 -27
30 -17 21 -68 -20 -118 -25 -31 -32 -48 -28 -65 4 -15 2 -21 -4 -17 -6 4 -14
-1 -18 -10 -12 -32 32 -56 92 -50 62 6 94 26 139 85 34 45 34 46 28 119 -4 40
-4 73 0 73 41 0 82 -67 90 -145 9 -89 22 -135 71 -240 16 -34 103 -136 113
-133 4 2 27 -16 52 -40 25 -23 48 -42 52 -42 4 0 30 -13 57 -30 58 -34 106
-42 286 -47 153 -4 243 9 550 82 33 8 78 15 100 15 22 0 63 7 90 15 60 19 279
11 334 -11 18 -8 41 -14 51 -14 10 0 54 -19 99 -42 73 -39 137 -91 285 -233
23 -22 53 -48 66 -57 14 -9 45 -32 69 -50 24 -18 55 -40 70 -48 14 -8 42 -27
61 -41 30 -22 173 -81 197 -81 4 0 16 -4 27 -10 10 -5 33 -10 52 -10 18 0 38
-6 45 -14 13 -16 83 -17 139 -3 148 37 324 29 478 -22 21 -7 37 -7 45 -1 7 5
36 12 65 15 33 4 64 15 85 30 17 14 50 34 72 45 22 11 80 40 128 66 111 59
176 76 304 82 l102 4 118 -56 c65 -31 132 -63 148 -72 21 -12 54 -16 115 -15
75 1 91 5 140 32 30 17 76 41 102 54 80 38 202 168 240 257 20 46 38 131 38
181 0 22 4 48 9 57 5 9 12 127 16 262 3 135 8 254 10 265 2 11 7 65 10 119 3
54 10 131 16 170 5 39 12 87 14 106 3 19 13 43 24 54 17 16 22 17 36 6 21 -17
13 -130 -10 -143 -9 -4 -13 -13 -9 -18 3 -5 1 -15 -4 -22 -5 -7 -12 -31 -16
-54 -3 -23 -15 -62 -26 -88 -24 -57 -20 -95 22 -215 36 -101 54 -123 116 -143
128 -42 195 -44 337 -13 86 19 265 129 265 162 0 6 8 22 19 35 10 13 22 35 26
49 17 58 80 173 102 187 13 8 23 21 23 28 0 11 16 23 40 30 16 4 80 48 80 55
0 4 40 22 90 39 49 18 92 37 95 42 4 5 14 9 25 9 10 0 44 13 75 30 31 16 63
30 71 30 8 0 52 25 99 55 47 31 92 58 100 61 8 4 15 12 15 20 0 8 6 14 13 14
28 0 249 224 304 308 30 45 52 86 49 91 -3 5 3 11 15 14 16 4 18 11 13 32 -5
21 0 33 26 60 18 18 30 39 28 47 -3 7 11 42 31 78 19 36 52 99 73 140 22 41
50 93 64 115 13 22 27 47 31 55 4 8 22 36 40 61 18 26 33 49 33 52 0 7 65 121
96 167 13 20 26 58 29 90 4 30 13 89 22 130 8 41 16 128 19 192 2 65 9 129 14
143 18 47 12 244 -10 305 -13 39 -15 58 -8 67 7 9 6 20 -6 38 -9 14 -12 25 -7
25 5 0 16 -11 24 -24z m-9164 -648 c34 -106 78 -210 137 -322 52 -100 61 -113
170 -235 33 -38 66 -84 73 -103 7 -18 29 -68 48 -111 28 -61 36 -94 39 -154 5
-86 1 -93 -60 -93 -39 0 -144 43 -199 82 -42 30 -54 72 -76 275 -12 102 -25
200 -31 217 -16 51 -86 246 -114 319 -14 37 -28 81 -31 99 -3 17 -8 34 -10 38
-6 9 17 70 24 65 4 -2 17 -36 30 -77z m399 -1148 c74 0 84 -29 62 -165 -9 -57
-13 -217 -6 -260 16 -101 45 -143 111 -165 19 -6 35 -15 35 -20 0 -16 105 -47
182 -54 43 -4 106 -17 140 -30 97 -37 344 -159 331 -163 -7 -3 -21 1 -33 7
-12 6 -76 14 -143 16 -149 6 -228 29 -306 91 -29 24 -60 43 -68 43 -15 0 -90
40 -135 71 -15 11 -32 18 -39 17 -15 -4 -95 131 -111 187 -6 22 -19 49 -29 60
-10 11 -25 51 -33 89 -9 37 -23 80 -31 95 -19 36 -51 128 -59 172 l-6 36 52
-13 c29 -8 67 -14 86 -14z m972 -1172 c0 -25 -16 -37 -38 -31 -22 5 -22 7 -6
24 19 22 44 25 44 7z"/>
<path d="M4160 8585 c0 -2 10 -10 23 -16 20 -11 21 -11 8 4 -13 16 -31 23 -31
12z"/>
<path d="M3404 8413 c-5 -18 -12 -21 -36 -18 -24 3 -36 -2 -50 -20 -11 -14
-25 -22 -33 -18 -11 3 -13 1 -10 -10 4 -8 0 -17 -8 -20 -8 -3 -14 -22 -15 -46
-1 -29 -12 -55 -36 -88 -37 -52 -61 -117 -35 -97 8 6 24 14 37 17 19 4 21 3
11 -9 -8 -10 -8 -18 -1 -27 6 -7 9 -43 8 -80 -3 -66 -2 -67 30 -89 19 -13 34
-26 34 -30 0 -5 6 -8 14 -8 8 0 28 -11 45 -26 33 -27 97 -41 169 -36 37 3 45
7 53 31 l10 28 95 -4 c72 -3 103 1 129 13 51 24 61 40 40 64 -17 19 -16 20 24
26 22 4 41 11 41 16 0 5 -9 6 -20 3 -11 -3 -20 -2 -20 4 0 17 31 41 53 41 17
0 19 2 8 9 -8 5 -19 7 -25 5 -6 -2 -18 11 -26 28 -8 17 -24 36 -35 42 -11 6
-23 15 -26 19 -11 15 -83 30 -137 28 -39 -2 -62 4 -88 19 -48 30 -54 47 -48
127 7 87 -8 101 -111 106 -11 0 -23 6 -28 11 -4 7 -9 2 -13 -11z m4 -95 c16
-16 15 -46 -3 -64 -8 -9 -15 -26 -15 -39 0 -26 -28 -42 -36 -20 -3 8 1 28 10
45 9 19 13 43 9 61 -6 31 12 40 35 17z m-76 -53 c-5 -41 -11 -44 -33 -16 -15
18 -17 27 -8 38 21 24 44 11 41 -22z m258 -170 c8 -10 31 -15 71 -15 62 0 109
-13 109 -30 0 -18 -82 -50 -130 -50 -25 0 -65 7 -90 15 -40 12 -42 15 -22 21
21 6 23 11 17 40 -5 29 -3 34 13 34 11 0 25 -7 32 -15z m-220 -81 c0 -19 17
-18 29 4 10 15 11 15 17 -5 3 -13 14 -23 22 -23 18 0 72 -58 72 -78 0 -9 -10
-11 -37 -6 -72 13 -108 30 -111 52 -3 18 -7 20 -28 12 -20 -8 -24 -7 -24 10 0
24 37 63 50 55 6 -4 10 -13 10 -21z"/>
<path d="M5840 8259 c-40 -11 -140 -60 -140 -69 0 -4 -8 -15 -18 -26 -65 -69
-111 -244 -81 -301 15 -28 48 -47 98 -58 29 -6 33 -5 28 9 -5 12 1 19 17 26
14 5 28 16 33 24 4 8 35 37 68 66 33 28 80 67 104 88 25 22 55 61 72 96 28 57
28 60 12 87 -15 25 -22 28 -50 23 -27 -5 -38 -2 -60 20 -28 28 -31 29 -83 15z
m41 -95 c15 -41 -8 -73 -100 -138 -38 -27 -56 -35 -64 -27 -15 15 26 87 72
128 20 17 43 38 51 47 22 21 29 19 41 -10z"/>
<path d="M4389 8030 c-71 -21 -108 -91 -88 -164 11 -38 88 -124 129 -143 14
-6 48 -21 75 -34 28 -12 54 -29 58 -36 4 -7 14 -13 20 -13 7 0 19 -6 26 -12 6
-7 15 -13 19 -14 4 0 19 -4 35 -8 34 -10 84 9 92 35 4 10 10 19 14 19 39 0 40
190 3 231 -14 14 -22 18 -22 9 0 -9 -5 -7 -14 6 -12 15 -26 19 -73 18 -32 0
-68 -4 -80 -8 -21 -7 -23 -4 -23 23 l0 30 -67 3 c-65 3 -69 2 -85 -24 -10 -15
-15 -35 -11 -44 4 -12 2 -15 -8 -12 -25 8 -21 35 9 70 32 35 44 69 27 74 -5 1
-22 -1 -36 -6z m146 -89 c3 -5 1 -12 -3 -15 -5 -3 -8 -32 -6 -66 1 -33 -2 -60
-7 -60 -28 0 -51 126 -26 142 16 11 35 10 42 -1z m123 -99 c4 -23 -27 -42 -69
-42 -27 0 -24 16 8 46 31 29 57 28 61 -4z m75 -58 c8 -8 -13 -64 -24 -64 -16
0 -21 27 -9 49 11 21 22 26 33 15z m-80 -58 c3 -8 3 -17 0 -20 -9 -9 -44 14
-38 25 9 14 32 11 38 -5z m56 -19 c6 -8 8 -17 4 -20 -7 -8 -33 11 -33 24 0 13
16 11 29 -4z"/>
<path d="M6871 7763 c-21 -17 -24 -27 -22 -81 0 -35 5 -70 10 -80 4 -9 16 -35
27 -57 10 -22 29 -54 41 -71 13 -17 23 -34 23 -39 0 -4 25 -37 56 -73 32 -38
53 -71 50 -79 -18 -47 66 -84 141 -62 50 13 58 25 67 92 8 66 -22 138 -67 158
-26 11 -33 21 -39 56 -7 40 -24 83 -38 93 -3 3 -17 27 -29 53 -29 59 -78 94
-146 102 -41 6 -55 3 -74 -12z m142 -164 c-4 -24 -2 -34 11 -41 9 -5 14 -13
11 -18 -3 -5 -1 -11 5 -15 5 -3 10 -15 10 -26 0 -20 -7 -15 -60 48 -5 7 -10
28 -10 48 0 28 4 35 20 35 17 0 19 -5 13 -31z"/>
<path d="M1910 7509 c-73 -19 -121 -52 -145 -99 -34 -68 -40 -108 -19 -131 20
-22 40 -25 48 -6 3 6 3 -1 1 -16 -2 -16 0 -34 5 -40 53 -68 67 -79 105 -82 22
-2 53 2 70 10 16 7 39 15 50 17 14 2 21 12 23 36 3 32 6 34 59 36 23 1 71 53
89 95 14 35 12 67 -4 57 -5 -3 -8 5 -8 17 1 15 -5 22 -16 21 -9 -1 -14 4 -12
11 3 6 -2 18 -11 25 -8 7 -15 9 -15 4 0 -5 -4 -4 -8 1 -4 6 -25 19 -47 31 -43
23 -108 28 -165 13z m83 -102 c-19 -22 -20 -22 32 -1 19 8 19 -6 1 -32 -13
-16 -18 -17 -35 -6 -18 11 -21 10 -21 -7 0 -25 -16 -36 -75 -50 -27 -7 -53
-18 -57 -24 -14 -24 -21 4 -9 42 10 36 15 40 62 51 35 9 53 19 56 31 4 12 14
17 34 17 29 -1 29 -2 12 -21z m28 -220 c-8 -8 -11 -7 -11 4 0 20 13 34 18 19
3 -7 -1 -17 -7 -23z"/>
<path d="M4819 7451 c-66 -13 -149 -62 -163 -95 -15 -36 -3 -128 20 -164 17
-26 123 -80 169 -86 17 -2 71 -11 120 -21 50 -10 104 -17 122 -17 18 1 35 -3
38 -8 3 -5 18 -7 33 -5 15 3 47 7 72 9 26 2 44 8 42 15 -1 6 5 11 14 11 8 0
12 5 9 10 -6 9 7 14 27 11 10 -1 88 103 88 116 0 6 -6 13 -14 16 -8 3 -16 16
-18 28 -3 23 -8 26 -70 53 -20 9 -39 20 -42 25 -3 4 -22 8 -42 9 -20 1 -44 8
-53 16 -9 9 -41 21 -71 27 -30 6 -66 17 -80 24 -23 12 -54 19 -135 29 -16 3
-46 1 -66 -3z m276 -111 c7 -6 17 -10 21 -9 5 2 29 -7 54 -18 25 -12 57 -26
72 -32 26 -10 48 -54 34 -68 -10 -11 -223 -4 -253 8 -29 11 -50 14 -172 24
-81 7 -91 10 -91 29 0 12 48 41 63 38 4 -1 7 4 7 11 0 26 44 35 148 32 57 -2
109 -9 117 -15z m265 -140 c0 -5 -2 -10 -4 -10 -3 0 -8 5 -11 10 -3 6 -1 10 4
10 6 0 11 -4 11 -10z"/>
<path d="M6424 7257 c-91 -39 -87 -34 -232 -322 -19 -38 -43 -81 -53 -93 -15
-20 -18 -39 -14 -117 4 -103 22 -143 76 -165 24 -10 34 -8 81 17 63 35 102 88
119 159 12 51 7 104 -10 104 -5 0 -17 -23 -27 -52 -24 -66 -42 -73 -46 -16 -2
31 -8 44 -20 46 -12 2 -18 -3 -18 -16 0 -25 -46 -82 -67 -82 -16 0 -16 -4 19
110 19 60 45 118 59 130 3 3 22 39 43 80 55 109 129 166 183 141 18 -8 24 -17
20 -32 -5 -18 -2 -19 23 -14 22 5 31 2 38 -12 13 -23 61 -28 69 -7 6 17 -19
78 -47 112 -22 27 -79 52 -117 52 -15 -1 -51 -11 -79 -23z"/>
<path d="M2950 7181 c0 -6 -17 -11 -37 -11 -41 -1 -65 -14 -76 -43 -3 -9 -12
-16 -19 -15 -9 2 -13 -11 -14 -42 0 -25 -6 -69 -12 -99 -18 -81 -16 -118 7
-124 16 -4 18 -10 10 -48 -16 -87 -12 -107 33 -155 23 -24 46 -44 52 -44 15 0
105 -64 134 -95 12 -13 22 -31 22 -40 0 -8 4 -15 10 -15 5 0 12 -11 16 -25 3
-14 10 -25 14 -25 4 0 13 -13 18 -30 6 -16 29 -49 52 -72 37 -38 80 -111 80
-136 0 -5 9 -21 20 -35 16 -20 18 -31 11 -50 -6 -15 -6 -37 -1 -54 5 -15 13
-66 19 -111 19 -153 81 -239 256 -357 47 -31 115 -84 153 -118 137 -125 121
-113 237 -172 38 -19 76 -35 85 -35 13 0 13 1 0 10 -9 6 -10 10 -3 10 7 0 16
-8 22 -17 8 -16 14 -16 42 -6 25 10 35 10 40 1 9 -15 5 -14 189 -22 85 -3 191
-9 235 -12 91 -6 252 9 305 29 8 3 42 12 75 20 33 8 92 24 130 34 84 23 103
20 111 -15 14 -56 48 -101 94 -123 25 -12 53 -26 63 -31 10 -5 57 -14 105 -19
48 -6 96 -16 106 -21 36 -19 116 -80 116 -88 0 -4 14 -13 30 -20 29 -12 33
-11 61 16 82 78 87 208 12 274 -30 27 -39 29 -91 27 -31 -2 -74 -11 -94 -21
-21 -10 -45 -16 -53 -12 -9 3 -15 0 -15 -8 0 -18 -38 -28 -61 -16 -9 5 -22 23
-27 40 -10 27 -8 33 19 60 26 26 38 30 84 30 64 0 100 12 133 45 13 13 40 29
60 35 40 12 135 47 167 61 66 28 100 39 121 39 13 0 27 6 31 13 9 14 158 67
189 67 10 0 36 12 57 26 21 14 51 26 67 26 16 1 31 7 34 15 3 7 12 13 21 13 8
0 15 3 15 8 0 4 10 13 23 19 39 21 112 56 117 58 21 5 77 42 99 65 118 125
126 139 117 213 -7 51 -8 54 -34 51 -15 -1 -39 -17 -55 -36 -19 -22 -27 -26
-22 -13 24 74 17 125 -18 124 -21 0 -21 -1 -2 -10 17 -7 15 -8 -11 -7 -17 2
-38 -3 -46 -9 -8 -7 -23 -12 -33 -11 -25 1 -153 -73 -185 -107 -13 -14 -32
-25 -43 -25 -16 0 -18 5 -15 30 3 21 0 30 -10 30 -10 0 -13 -11 -10 -42 2 -35
0 -43 -15 -46 -18 -4 -19 3 -13 100 10 203 10 214 -18 272 l-25 53 -92 27
c-50 15 -113 41 -139 57 -26 16 -53 29 -59 29 -7 0 -38 13 -69 30 -79 42 -219
100 -240 100 -10 0 -23 5 -28 10 -6 6 -56 10 -112 11 -78 0 -109 -3 -127 -15
-13 -9 -31 -16 -38 -16 -8 0 -20 -7 -27 -15 -10 -12 -9 -15 6 -15 16 0 17 -2
4 -10 -26 -17 -50 -11 -113 27 -206 122 -257 133 -607 133 -182 0 -178 0 -255
-25 -46 -15 -72 -31 -110 -71 -33 -35 -62 -54 -85 -59 -39 -8 -112 -43 -162
-78 -37 -26 -173 -160 -195 -194 -11 -16 -25 -23 -47 -23 -46 0 -125 -31 -132
-52 -3 -10 -13 -18 -22 -18 -30 0 -75 -122 -70 -190 1 -27 0 -50 -4 -50 -10 0
-25 31 -29 59 -2 14 -13 34 -25 46 -11 11 -33 53 -48 92 -15 40 -44 98 -65
130 -44 68 -150 203 -160 203 -4 0 -32 25 -63 55 -31 31 -70 60 -87 66 -17 6
-31 15 -31 21 0 5 5 6 11 2 17 -10 68 52 62 75 -3 10 0 22 6 25 6 4 11 16 11
27 0 11 6 22 14 25 8 3 13 21 13 46 0 27 6 46 17 53 14 11 14 13 -2 28 -14 12
-17 31 -16 95 1 75 0 81 -23 91 -13 6 -33 11 -43 11 -10 0 -23 6 -27 14 -10
17 -53 31 -53 17z m30 -121 c4 -8 12 -25 18 -37 12 -22 5 -34 -28 -46 -13 -5
-13 -6 1 -6 22 -1 43 -49 28 -67 -6 -7 -8 -18 -4 -24 3 -5 0 -13 -9 -16 -18
-7 -59 14 -51 27 4 5 -1 12 -9 15 -9 3 -16 14 -16 24 0 11 -5 22 -10 25 -6 4
-10 14 -9 23 1 10 -1 25 -5 34 -5 11 -1 23 12 36 34 34 69 39 82 12z m-100
-360 c0 -5 -2 -10 -4 -10 -3 0 -8 5 -11 10 -3 6 -1 10 4 10 6 0 11 -4 11 -10z
m90 -32 c0 -11 -62 -10 -78 1 -8 5 5 8 32 7 25 -1 46 -4 46 -8z m1755 -97
c180 -8 193 -9 235 -34 129 -76 265 -127 337 -127 37 0 111 38 130 66 8 13 23
24 33 24 24 0 198 -56 230 -74 14 -8 42 -17 63 -21 20 -4 37 -11 37 -15 0 -5
9 -11 19 -15 11 -3 35 -16 53 -29 18 -12 76 -39 128 -60 52 -22 102 -45 110
-53 11 -10 16 -40 18 -111 2 -53 5 -114 9 -134 6 -45 -16 -53 -37 -13 -7 14
-19 25 -27 25 -7 0 -30 9 -50 20 -21 11 -43 20 -50 20 -8 0 -21 4 -31 10 -27
15 -114 41 -120 36 -2 -3 -14 0 -25 6 -11 6 -49 16 -83 24 -36 7 -121 41 -196
78 -191 95 -332 125 -453 96 -22 -5 -67 -12 -100 -15 -33 -4 -66 -8 -72 -10
-7 -2 -43 -7 -80 -11 -74 -6 -152 -39 -190 -80 -25 -27 -89 -58 -143 -68 -41
-8 -50 -12 -150 -57 -73 -33 -185 -109 -225 -153 -30 -33 -85 -113 -85 -124 0
-6 -12 -20 -27 -32 -16 -12 -58 -50 -94 -86 -38 -36 -75 -64 -87 -64 -21 0
-189 133 -216 172 -20 27 -21 78 -3 121 8 18 20 57 27 87 16 65 51 115 88 125
98 24 225 115 325 233 15 19 36 34 46 35 11 1 17 7 14 14 -3 8 3 13 15 13 42
0 147 62 199 118 45 48 59 57 110 68 32 6 74 10 93 8 19 -3 121 -8 225 -13z
m540 -421 c33 -7 65 -16 70 -20 6 -4 21 -10 35 -13 14 -4 48 -22 77 -41 29
-19 63 -38 75 -41 13 -4 32 -13 44 -20 23 -15 97 -34 253 -65 110 -22 151 -38
191 -75 14 -13 39 -25 55 -27 21 -2 31 -9 33 -24 3 -18 -3 -21 -44 -23 -26 0
-54 -6 -61 -13 -21 -17 -160 8 -263 48 -47 18 -123 40 -169 48 -47 9 -101 20
-120 26 -57 14 -233 40 -278 40 -23 0 -52 -4 -65 -9 -13 -5 -51 -14 -84 -20
-34 -6 -75 -18 -92 -27 -18 -9 -69 -17 -123 -19 -93 -5 -143 -16 -189 -41 -14
-8 -45 -23 -70 -35 -25 -12 -49 -28 -53 -35 -4 -8 -38 -28 -75 -45 -37 -17
-78 -39 -92 -48 -14 -10 -45 -23 -70 -31 -25 -7 -54 -18 -65 -24 -11 -5 -29
-12 -40 -13 -11 -2 -38 -15 -59 -29 -21 -15 -49 -27 -62 -28 -16 -1 -20 -4
-12 -13 18 -22 1 -45 -29 -40 -41 7 -103 34 -103 46 0 6 26 27 58 47 31 20 84
66 117 101 181 195 197 209 281 237 43 14 120 36 170 49 72 19 104 33 150 68
115 86 105 83 294 90 36 2 70 7 77 12 7 5 36 11 65 14 29 3 54 6 55 7 5 4 61
-2 118 -14z m1301 -117 c-7 -22 -65 -60 -103 -68 -23 -5 -21 -2 14 17 23 13
51 36 63 51 24 30 36 30 26 0z m-61 -93 c-10 -17 -128 -68 -170 -74 -32 -4
-36 -3 -20 6 11 6 31 18 45 27 14 9 50 23 80 32 69 21 73 21 65 9z m-1228
-183 c12 -1 25 -5 29 -9 4 -5 23 -8 41 -8 19 0 43 -5 54 -11 11 -6 59 -14 107
-19 112 -11 129 -14 177 -36 22 -10 46 -17 53 -15 6 1 12 -5 12 -12 0 -8 -12
-17 -27 -20 -16 -3 -66 -19 -113 -36 -47 -17 -114 -35 -150 -41 -116 -18 -173
-29 -225 -44 -43 -13 -170 -41 -230 -52 -45 -8 -109 -25 -125 -34 -17 -9 -68
-17 -145 -22 -22 -2 -46 -8 -52 -15 -12 -11 -52 -11 -384 1 -101 4 -162 19
-143 35 8 7 143 52 170 57 14 2 97 44 140 70 219 132 238 140 342 149 181 14
257 27 302 52 37 20 54 23 95 18 28 -3 60 -7 72 -8z m403 -606 c0 -24 -15 -35
-36 -27 -12 4 -13 10 -4 26 14 26 40 26 40 1z"/>
<path d="M2103 7150 c-10 -11 -29 -20 -43 -20 -31 0 -75 -44 -66 -66 4 -9 -4
-28 -19 -46 -14 -16 -25 -35 -25 -42 0 -7 -32 -46 -71 -87 -74 -77 -145 -173
-185 -248 -13 -24 -28 -49 -34 -56 -16 -20 91 -120 150 -140 52 -17 115 -16
115 3 0 6 6 17 13 24 6 6 12 17 12 22 0 6 16 22 35 35 30 20 188 172 258 248
14 15 21 38 22 72 2 28 10 62 19 76 14 22 15 25 1 25 -21 0 -19 13 5 28 28 17
25 31 -7 29 -22 -2 -28 3 -29 18 -1 11 -2 25 -3 31 -1 6 -13 9 -29 6 -30 -4
-70 27 -44 35 6 3 12 9 12 14 0 6 -4 7 -10 4 -5 -3 -10 -1 -10 6 0 10 -37 49
-47 49 -2 0 -11 -9 -20 -20z m67 -143 c0 -7 10 -21 22 -32 15 -12 18 -20 10
-23 -7 -2 -12 -13 -12 -23 0 -21 -17 -60 -30 -69 -70 -49 -189 -165 -240 -233
-19 -25 -40 -46 -47 -47 -7 0 -10 -7 -7 -15 8 -21 -2 -19 -30 6 -20 18 -24 28
-19 53 3 17 13 41 20 53 8 12 12 31 9 41 -5 14 -1 21 14 25 11 3 20 13 20 24
0 10 13 25 29 35 34 19 70 78 49 78 -16 1 30 40 47 40 6 0 20 9 29 19 10 11
35 23 57 26 21 4 39 12 39 19 0 14 20 36 32 36 4 0 8 -6 8 -13z"/>
<path d="M8166 6771 c-3 -4 -23 -11 -43 -15 -45 -8 -94 -47 -96 -79 0 -12 -5
-25 -10 -28 -21 -15 45 -134 71 -127 6 2 18 -6 28 -17 11 -11 33 -27 49 -37
271 -148 268 -148 319 -95 17 18 43 38 57 44 30 13 48 75 30 97 -6 7 -8 16 -5
19 19 19 -109 157 -145 157 -7 0 -22 5 -34 12 -12 6 -35 13 -52 15 -41 4 -83
22 -89 38 -3 8 -13 11 -24 8 -11 -2 -23 0 -26 6 -9 13 -23 14 -30 2z m57 -85
c18 -7 53 -23 79 -35 26 -11 56 -21 67 -21 21 0 67 -33 81 -60 7 -12 7 -28 0
-44 -8 -23 -15 -26 -54 -26 -33 0 -52 7 -74 25 -17 14 -35 25 -40 25 -6 0 -23
5 -39 12 -15 6 -33 12 -39 13 -6 2 -20 10 -30 19 -11 8 -28 22 -39 30 -19 14
-18 15 14 45 38 36 34 35 74 17z"/>
<path d="M6830 6542 c0 -5 7 -13 16 -16 10 -4 14 -1 12 6 -5 15 -28 23 -28 10z"/>
<path d="M6663 6451 c-29 -27 -55 -61 -59 -75 -8 -34 13 -97 31 -90 7 3 16 -3
20 -15 3 -12 13 -21 21 -21 8 0 14 -4 14 -9 0 -28 63 -15 83 17 4 6 19 12 33
12 22 0 23 -3 14 -20 -9 -17 -6 -21 26 -35 39 -16 72 -18 205 -10 149 8 195
42 183 135 -8 64 -28 86 -85 95 -24 4 -60 19 -80 32 -36 24 -38 24 -63 8 -14
-10 -26 -21 -26 -26 0 -13 -59 -41 -78 -36 -13 3 -11 7 11 17 15 7 27 17 27
22 0 4 9 8 20 8 24 0 26 13 4 31 -12 10 -20 10 -33 2 -10 -6 -36 -9 -58 -6
-34 4 -44 1 -64 -19 -13 -14 -32 -28 -42 -32 -15 -5 -17 -2 -12 15 7 21 -9 49
-29 49 -6 0 -34 -22 -63 -49z m266 -87 c-9 -11 -8 -14 2 -15 8 0 -3 -9 -24
-18 -21 -10 -38 -22 -37 -27 1 -5 -4 -10 -11 -13 -7 -2 -9 1 -4 9 5 8 2 18 -8
25 -20 14 -11 26 33 46 40 19 67 15 49 -7z m112 5 c11 -5 17 -15 13 -21 -4 -5
-1 -13 5 -17 8 -5 7 -13 -3 -27 -15 -19 -15 -19 -37 3 -16 16 -20 28 -15 47 7
29 9 30 37 15z"/>
<path d="M6890 6339 c0 -5 5 -7 10 -4 6 3 10 8 10 11 0 2 -4 4 -10 4 -5 0 -10
-5 -10 -11z"/>
<path d="M6770 6480 c0 -5 5 -10 10 -10 6 0 10 5 10 10 0 6 -4 10 -10 10 -5 0
-10 -4 -10 -10z"/>
<path d="M689 6438 c-8 -33 -8 -88 1 -88 15 0 12 -63 -6 -106 -9 -22 -15 -39
-14 -39 2 0 -3 -18 -11 -40 -17 -52 -17 -210 1 -250 7 -16 14 -32 15 -35 17
-64 67 -93 130 -75 43 12 55 23 83 68 57 94 100 256 108 403 6 94 1 116 -32
149 -16 15 -19 15 -40 -12 -26 -32 -30 -49 -11 -56 6 -2 8 -8 4 -13 -4 -5 -12
-2 -17 5 -14 23 -38 6 -33 -23 3 -14 9 -26 14 -26 4 0 6 -23 3 -51 -4 -36 -2
-49 5 -45 15 9 13 -4 -3 -33 -8 -14 -12 -31 -9 -37 2 -7 -5 -34 -17 -61 -12
-27 -19 -57 -15 -70 4 -18 1 -23 -15 -23 -11 0 -20 -7 -20 -15 0 -8 -6 -15
-14 -15 -8 0 -16 -3 -19 -7 -2 -5 -2 -2 -1 5 2 6 -1 12 -5 12 -5 0 -11 -6 -14
-12 -2 -7 -8 -10 -12 -6 -4 4 -2 14 4 22 10 12 8 14 -11 9 -13 -3 -19 -1 -12
4 5 4 11 31 12 58 2 65 23 185 32 185 14 0 22 110 10 145 -12 35 -52 75 -76
75 -8 0 -14 -1 -15 -2z"/>
<path d="M1787 5824 c-47 -31 -121 -106 -153 -156 -13 -20 -44 -60 -69 -88
-25 -28 -45 -55 -45 -60 0 -5 -6 -15 -12 -22 -57 -61 -93 -163 -68 -192 15
-19 30 -12 30 15 0 32 25 17 28 -17 2 -16 10 -44 18 -62 15 -33 16 -33 42 -16
42 26 72 56 66 66 -3 5 -2 7 3 6 15 -4 67 36 139 107 39 38 91 88 116 109 46
39 111 118 136 166 17 31 2 89 -34 138 -24 31 -28 32 -92 31 -54 0 -74 -5
-105 -25z m96 -86 c6 -18 -34 -88 -50 -88 -7 0 -13 -5 -13 -11 0 -6 -6 -16
-12 -23 -31 -29 -143 -116 -151 -116 -5 0 4 17 20 38 16 20 40 55 53 77 14 22
44 61 69 88 43 46 75 59 84 35z"/>
<path d="M8455 5777 c-26 -15 -36 -31 -57 -91 -25 -69 -24 -220 1 -235 10 -6
9 -12 -3 -24 -19 -18 -13 -40 22 -82 36 -43 79 -66 126 -68 99 -3 143 60 144
208 1 50 4 102 8 117 4 19 1 36 -10 53 -9 13 -16 30 -16 37 0 7 -19 32 -42 55
-40 41 -45 43 -98 42 -30 0 -64 -6 -75 -12z m129 -92 c20 -32 33 -136 22 -179
-6 -25 -10 -26 -70 -26 -67 0 -80 7 -91 51 -4 17 -1 30 9 38 9 8 16 27 16 43
0 40 17 68 41 68 16 0 19 4 14 21 -11 33 36 20 59 -16z"/>
<path d="M2325 5723 c-64 -22 -68 -31 -67 -128 0 -51 -5 -103 -13 -126 -8 -22
-14 -40 -14 -42 1 -2 -3 -19 -16 -79 -5 -25 -7 -27 -25 -15 -11 6 -18 18 -15
24 2 8 -4 13 -15 13 -11 0 -20 -4 -20 -10 0 -5 -7 -10 -15 -10 -8 0 -15 4 -15
10 0 12 -55 3 -95 -16 -48 -22 -65 -40 -65 -66 0 -13 -4 -28 -9 -33 -5 -6 -16
-27 -25 -49 -12 -28 -13 -37 -3 -33 7 3 21 -1 32 -9 18 -14 18 -14 -3 -14 -15
0 -22 -6 -22 -20 0 -14 -6 -20 -16 -18 -19 3 -54 -55 -54 -89 0 -12 -5 -25
-11 -28 -6 -4 -8 -14 -5 -22 4 -9 2 -21 -4 -28 -32 -38 -4 -130 40 -130 13 0
34 -10 45 -21 16 -16 32 -21 61 -19 21 2 40 4 42 5 3 3 18 7 32 9 20 2 69 94
80 148 7 29 20 61 30 71 23 22 80 127 80 148 0 9 13 33 29 53 16 20 32 52 35
71 3 19 10 36 15 38 6 2 11 11 11 20 0 10 14 48 30 87 17 38 33 85 36 103 8
44 17 30 39 -68 9 -41 24 -83 32 -92 23 -26 58 -22 83 9 18 23 21 38 19 100
-3 67 -7 78 -54 155 -28 46 -61 87 -73 93 -12 5 -22 13 -22 17 0 12 -50 7 -95
-9z m-225 -383 c0 -5 -2 -10 -4 -10 -3 0 -8 5 -11 10 -3 6 -1 10 4 10 6 0 11
-4 11 -10z m100 -64 c0 -3 -9 -20 -19 -38 -11 -18 -23 -50 -26 -70 -4 -21 -11
-38 -16 -38 -5 0 -9 -11 -9 -25 0 -14 -9 -34 -20 -45 -11 -11 -20 -27 -20 -35
0 -8 -4 -15 -10 -15 -5 0 -17 -14 -25 -30 -9 -17 -20 -28 -25 -25 -9 6 -14
-16 -13 -52 1 -7 -2 -13 -6 -13 -9 0 -26 34 -41 83 -6 20 -16 37 -20 37 -17 0
44 125 83 171 31 36 51 49 89 60 28 7 52 19 55 26 5 12 23 19 23 9z m-230 -97
c0 -5 -7 -6 -15 -3 -8 4 -15 13 -15 21 0 13 3 13 15 3 8 -7 15 -16 15 -21z"/>
<path d="M7270 5073 c-35 -6 -101 -38 -125 -60 -11 -10 -32 -26 -47 -36 -16
-10 -28 -22 -28 -28 0 -6 -11 -20 -24 -30 -14 -11 -28 -29 -31 -40 -4 -11 -18
-24 -31 -30 -31 -11 -21 -33 12 -26 28 5 27 6 14 -29 l-11 -27 -24 23 c-14 13
-26 22 -28 19 -1 -2 -14 -20 -28 -39 -36 -50 -41 -67 -22 -85 14 -15 13 -18
-7 -41 -15 -14 -18 -24 -10 -24 9 0 11 -9 7 -30 -4 -16 -3 -29 1 -28 16 3 62
-22 62 -34 0 -7 17 -29 38 -48 20 -18 37 -38 37 -42 0 -5 6 -13 14 -17 17 -11
61 7 61 25 0 15 45 51 85 68 24 10 33 23 44 62 9 30 26 59 43 73 15 13 38 40
50 60 12 20 35 49 50 64 15 16 31 41 35 55 3 15 17 47 30 71 12 24 23 52 23
62 0 31 -52 78 -110 99 -30 11 -55 19 -55 19 0 -1 -11 -4 -25 -6z m67 -92 c-3
-12 1 -22 9 -25 30 -11 1 -66 -41 -80 -24 -7 -75 -50 -75 -62 0 -5 -8 -17 -17
-25 -29 -26 -83 -87 -83 -93 0 -12 28 -6 39 8 13 16 51 28 51 16 0 -4 -9 -18
-19 -31 -14 -18 -31 -25 -63 -27 -71 -4 -90 -3 -103 8 -7 6 -17 10 -21 9 -5
-1 -22 -1 -39 0 -25 1 -27 3 -13 12 10 5 15 16 11 25 -3 9 7 29 28 50 18 19
30 34 26 34 -9 0 9 23 41 53 13 12 33 39 44 60 11 23 25 37 32 34 7 -3 26 3
42 14 18 12 47 19 77 19 26 0 47 5 47 10 0 6 7 10 16 10 11 0 15 -6 11 -19z"/>
<path d="M1538 5002 c-10 -2 -34 -28 -53 -57 -20 -29 -54 -70 -76 -90 -41 -37
-82 -106 -95 -160 -4 -16 -10 -34 -14 -40 -4 -5 -15 -32 -24 -58 -15 -46 -15
-50 4 -92 11 -24 20 -48 19 -52 -3 -17 14 -52 27 -57 8 -3 14 -12 14 -21 0
-23 55 -19 108 7 67 34 168 147 187 209 4 13 20 49 36 79 53 104 31 248 -46
305 -33 24 -61 33 -87 27z m55 -151 c28 -42 26 -54 -9 -45 -17 4 -27 -1 -41
-23 -23 -35 -51 -71 -80 -98 -18 -17 -22 -31 -19 -62 2 -22 6 -45 10 -52 8
-12 4 -13 -66 -16 l-47 -3 27 25 27 24 -27 -16 c-32 -20 -42 -7 -27 32 6 15
12 35 14 44 7 32 55 98 95 130 22 18 43 42 46 54 4 18 36 39 65 44 4 1 18 -17
32 -38z m-59 -157 c8 -22 7 -34 -3 -34 -5 0 -11 11 -13 25 -6 28 6 34 16 9z"/>
<path d="M4383 4829 c-23 -8 -152 -153 -191 -214 -14 -22 -32 -45 -41 -52 -9
-7 -11 -13 -6 -13 6 0 4 -4 -3 -8 -7 -5 -15 -26 -19 -48 -3 -21 -9 -41 -13
-44 -4 -3 -19 -30 -35 -60 -21 -42 -27 -69 -27 -113 0 -67 9 -78 81 -95 107
-25 115 -25 167 10 26 18 55 45 63 59 9 14 40 59 70 100 29 41 55 81 58 89 3
8 9 24 14 35 27 63 49 145 49 185 0 55 -9 92 -21 84 -5 -3 -9 4 -9 15 0 40
-91 87 -137 70z m105 -144 c2 -9 0 -24 -4 -33 -4 -9 -6 -21 -5 -26 1 -5 -2
-12 -7 -15 -18 -11 -57 -83 -117 -216 -8 -16 -33 -48 -56 -70 l-42 -40 6 33
c7 34 -3 41 -23 17 -15 -18 -60 -20 -60 -2 0 6 9 50 19 96 18 79 60 159 111
211 8 8 24 26 35 40 11 14 34 33 50 42 28 16 32 16 60 -2 17 -11 32 -26 33
-35z"/>
<path d="M3116 4810 c-49 -15 -116 -93 -116 -135 0 -29 88 -149 122 -167 120
-60 223 -108 234 -108 7 0 29 -13 47 -30 19 -16 39 -30 45 -30 5 0 15 -7 22
-15 7 -8 20 -15 29 -15 9 0 21 -10 26 -22 6 -13 27 -31 49 -41 59 -28 111 -16
163 38 35 37 42 52 49 101 4 38 3 69 -6 93 -15 41 -47 91 -60 91 -4 0 -32 16
-61 35 -30 19 -57 35 -62 35 -5 0 -23 11 -40 24 -18 14 -45 28 -62 32 -16 3
-37 12 -45 19 -8 7 -33 19 -55 26 -22 7 -49 19 -60 26 -11 7 -27 13 -36 13 -9
0 -45 9 -79 20 -69 22 -64 22 -104 10z m123 -115 c36 -9 70 -19 75 -23 6 -4
29 -14 51 -21 22 -8 65 -25 95 -39 30 -14 61 -25 68 -25 6 0 12 -6 12 -14 0
-7 9 -13 21 -13 11 0 23 -8 26 -17 2 -10 18 -27 35 -38 25 -16 32 -28 35 -62
4 -40 2 -43 -19 -40 -13 1 -28 8 -34 16 -6 7 -31 25 -56 40 -26 14 -73 41
-105 60 -122 72 -270 141 -304 141 -21 0 -43 26 -34 40 9 14 59 12 134 -5z"/>
<path d="M4880 4634 c-69 -37 -100 -76 -100 -127 0 -23 6 -54 14 -69 8 -15 17
-40 21 -57 4 -17 11 -29 16 -25 5 3 12 -2 15 -10 3 -9 14 -16 24 -16 10 0 24
-7 31 -16 16 -20 58 -38 81 -35 9 1 19 -3 23 -8 4 -7 15 -5 31 5 13 9 24 13
24 9 0 -4 7 -2 15 5 12 10 19 10 27 2 9 -9 8 -12 -6 -12 -31 0 -8 -18 31 -24
132 -20 207 -11 238 28 12 15 25 26 29 26 10 0 56 48 56 59 0 4 5 12 12 19 27
27 5 127 -34 160 -21 17 -129 48 -253 72 -33 6 -73 16 -90 20 -16 5 -59 11
-95 14 -55 4 -72 1 -110 -20z m235 -103 c113 -28 134 -37 182 -72 40 -30 50
-43 46 -59 -4 -14 -14 -20 -35 -20 -39 0 -331 71 -339 82 -3 5 -13 6 -22 3
-11 -5 -21 4 -36 34 -12 22 -21 42 -21 45 0 8 185 -2 225 -13z"/>
<path d="M2284 4525 c-9 -14 -24 -25 -34 -25 -23 0 -73 -49 -94 -92 -9 -17
-16 -47 -16 -67 0 -54 50 -120 91 -121 9 0 22 -7 29 -15 9 -11 17 -12 32 -4
15 8 24 7 37 -5 10 -9 22 -16 28 -16 12 0 27 -29 24 -47 -1 -7 5 -13 13 -13 8
0 17 6 19 13 3 7 6 5 6 -5 1 -16 13 -23 25 -15 2 1 12 -5 22 -14 11 -9 35 -20
54 -24 19 -4 49 -16 66 -26 45 -27 109 -25 149 5 33 25 38 44 37 138 0 40 -37
116 -62 128 -8 4 -28 14 -45 21 -16 8 -41 24 -55 37 -14 12 -29 22 -33 22 -5
0 -33 25 -62 57 l-53 56 -25 -28 c-13 -16 -24 -40 -23 -54 1 -23 5 -26 34 -23
32 2 33 1 16 -15 -16 -16 -15 -18 14 -25 23 -6 32 -15 37 -39 4 -17 9 -28 12
-25 3 3 17 -1 32 -8 14 -7 43 -13 63 -12 20 1 34 -2 32 -6 -2 -4 4 -12 13 -18
13 -8 14 -10 3 -9 -29 3 -41 -1 -35 -11 3 -5 15 -10 26 -10 10 0 19 -3 19 -6
0 -15 -22 -44 -35 -44 -7 0 -15 -5 -17 -10 -4 -12 -108 16 -108 29 0 5 -18 18
-41 30 -41 22 -54 31 -92 66 -12 11 -24 20 -27 21 -3 0 -12 3 -20 7 -8 3 -36
8 -62 12 -26 3 -50 10 -53 15 -9 15 18 50 38 50 11 0 17 6 15 17 -2 11 5 19
17 21 11 3 30 13 43 23 19 15 27 16 43 6 16 -10 21 -9 29 3 6 10 5 16 -3 19
-7 2 -18 12 -25 22 -7 10 -19 16 -27 13 -9 -4 -15 0 -15 10 0 25 -38 19 -56
-9z m426 -265 c0 -5 -4 -10 -10 -10 -5 0 -10 5 -10 10 0 6 5 10 10 10 6 0 10
-4 10 -10z m-20 -79 c0 -10 -9 -21 -20 -24 -18 -5 -18 -4 -3 19 19 29 23 30
23 5z"/>
<path d="M6370 3634 c-32 -13 -47 -30 -87 -98 -7 -12 -20 -26 -29 -33 -14 -10
-30 -44 -51 -105 -3 -10 -12 -18 -19 -18 -8 0 -14 -10 -14 -22 0 -12 -7 -29
-16 -39 -20 -22 -36 -92 -28 -123 8 -32 43 -46 116 -46 56 0 65 3 124 46 35
25 64 49 64 53 0 5 38 48 85 97 47 49 85 92 85 95 0 3 11 18 25 33 14 15 25
38 25 51 0 29 -43 95 -73 112 -30 17 -164 14 -207 -3z m70 -115 c-14 -12 -25
-24 -25 -28 -3 -39 -56 -111 -81 -111 -19 0 -26 48 -12 77 14 30 92 81 123 82
18 0 18 -1 -5 -20z"/>
<path d="M4828 3458 c-13 -19 -16 -20 -71 -6 -58 15 -67 14 -67 -9 0 -19 -32
-53 -50 -53 -15 0 -60 -50 -60 -66 0 -4 -8 -12 -17 -19 -14 -11 -15 -15 -4
-28 7 -9 20 -13 29 -11 13 4 13 3 -2 -6 -13 -9 -20 -9 -25 -1 -11 17 -70 -49
-77 -87 -4 -21 -3 -32 5 -32 6 0 11 -5 11 -12 0 -23 51 -78 74 -78 12 0 27 -5
33 -11 9 -9 30 -7 82 6 39 9 71 21 71 26 0 5 19 18 43 29 46 22 79 42 87 51 3
3 21 14 40 24 53 27 120 79 116 90 -2 6 1 17 5 27 10 18 -6 73 -30 103 -15 18
-27 22 -86 28 -20 1 -55 30 -55 45 0 17 -39 10 -52 -10z m-108 -29 c0 -5 -4
-9 -10 -9 -5 0 -10 7 -10 16 0 8 5 12 10 9 6 -3 10 -10 10 -16z m95 -39 c4 -6
14 -10 23 -9 30 3 35 -1 22 -16 -10 -13 -9 -15 12 -15 13 0 40 -9 61 -19 l37
-19 -27 -7 c-15 -3 -30 -10 -33 -13 -11 -14 -88 -51 -173 -82 l-89 -32 -24 23
c-21 19 -22 25 -10 38 24 28 48 82 42 97 -5 14 27 38 37 28 2 -3 22 4 43 15
43 23 69 27 79 11z"/>
<path d="M9397 4213 c-8 -16 -18 -39 -22 -53 -14 -46 -112 -235 -158 -306 -33
-50 -61 -79 -104 -106 -32 -21 -63 -42 -70 -48 -7 -5 -15 -10 -19 -10 -18 0
-80 -58 -121 -114 -25 -33 -49 -63 -53 -66 -9 -6 -41 -63 -97 -170 -30 -59
-62 -98 -150 -185 -115 -114 -125 -126 -208 -260 -27 -44 -55 -86 -62 -93 -7
-7 -33 -40 -59 -73 -31 -40 -62 -68 -97 -85 -53 -28 -126 -95 -158 -148 -10
-17 -19 -48 -19 -69 0 -46 -20 -95 -49 -121 -22 -20 -82 -33 -281 -63 -58 -8
-123 -24 -146 -34 -23 -10 -51 -19 -63 -19 -12 0 -37 -7 -56 -14 -19 -8 -35
-12 -35 -9 0 3 -8 -1 -17 -9 -10 -9 -27 -18 -38 -22 -21 -6 -95 -73 -95 -86 0
-16 -52 -62 -78 -69 -15 -4 -54 -9 -87 -10 -105 -3 -100 -1 -320 -121 -106
-58 -213 -110 -225 -110 -5 0 -10 -3 -12 -7 -6 -16 -85 -60 -143 -82 -66 -25
-207 -40 -227 -24 -13 11 -81 9 -99 -2 -10 -7 -24 -9 -134 -20 -38 -3 -95 -15
-125 -25 -30 -10 -73 -21 -95 -25 -22 -3 -55 -15 -72 -25 -18 -11 -50 -21 -72
-24 -21 -2 -47 -9 -57 -14 -11 -6 -41 -13 -68 -17 -27 -4 -57 -16 -67 -26 -24
-24 -25 -75 -1 -88 22 -12 153 2 212 23 48 17 298 79 365 91 81 14 230 14 292
0 58 -14 65 -13 115 7 29 12 71 37 94 55 23 18 46 33 51 33 6 0 13 6 16 14 3
8 21 17 39 21 18 4 71 26 118 48 47 23 88 40 93 39 4 -1 7 2 7 8 0 14 137 91
206 116 34 12 84 22 111 22 81 2 150 41 223 125 71 82 103 102 180 112 30 4
93 16 140 27 47 10 94 20 105 22 11 1 29 7 40 13 11 6 47 16 80 23 59 13 217
83 234 104 13 16 15 47 7 78 -7 23 -1 36 33 79 23 28 41 58 41 66 0 24 108
123 134 123 12 0 32 9 43 19 26 25 129 169 174 244 53 90 115 164 162 194 23
14 48 36 56 47 8 12 32 38 53 58 21 21 38 40 38 42 0 3 17 34 38 68 21 35 49
85 62 111 36 73 79 116 173 177 48 30 86 60 87 66 0 7 12 19 26 29 45 29 132
175 217 365 37 83 40 97 32 156 -7 60 -18 67 -38 27z"/>
<path d="M3073 1732 c-20 -34 9 -57 125 -102 59 -22 116 -45 127 -49 11 -5 23
-9 28 -9 4 -1 22 -9 39 -18 37 -19 116 -41 198 -55 30 -5 82 -16 115 -25 33
-8 105 -24 160 -35 55 -10 159 -30 230 -44 102 -19 348 -47 410 -47 119 2 163
4 178 8 26 8 20 33 -10 40 -16 4 -37 13 -48 20 -11 6 -40 15 -65 19 -25 4 -62
14 -84 21 -21 8 -53 16 -70 19 -17 2 -49 9 -71 16 -22 6 -67 15 -100 20 -103
17 -147 26 -230 48 -44 12 -123 31 -175 42 -148 32 -257 56 -352 77 -48 11
-94 24 -101 31 -8 6 -16 8 -19 5 -3 -3 -34 2 -68 11 -34 9 -94 19 -134 21 -63
5 -72 3 -83 -14z"/>
<path d="M6384 1455 c-4 -9 -3 -19 0 -23 9 -8 42 12 39 24 -4 16 -33 16 -39
-1z"/>
</g>
</svg>
